<svg width="24" height="24" viewBox="0 0 24 24" fill="none" xmlns="http://www.w3.org/2000/svg">
<g id="Style=90Degree">
<g id="Icon">
<path d="M5.00007 19.25C5.00007 19.6642 5.33586 20 5.75007 20H18.7501C19.1643 20 19.5001 19.6642 19.5001 19.25C19.5001 18.8358 19.1643 18.5 18.7501 18.5H5.75007C5.55034 18.4973 5.35799 18.5754 5.21674 18.7167C5.0755 18.8579 4.99735 19.0503 5.00007 19.25Z" fill="white"/>
<path d="M5.00007 12.25C5.00007 12.6642 5.33586 13 5.75007 13H18.7501C19.1643 13 19.5001 12.6642 19.5001 12.25C19.5001 11.8358 19.1643 11.5 18.7501 11.5H5.75007C5.55034 11.4973 5.35799 11.5754 5.21674 11.7167C5.0755 11.8579 4.99735 12.0503 5.00007 12.25Z" fill="white"/>
<path d="M5.00007 5.25C5.00007 5.66421 5.33586 6 5.75007 6H18.7501C19.1643 6 19.5001 5.66421 19.5001 5.25C19.5001 4.83578 19.1643 4.5 18.7501 4.5H5.75007C5.55034 4.49728 5.35799 4.57543 5.21674 4.71667C5.0755 4.85792 4.99735 5.05027 5.00007 5.25Z" fill="white"/>
</g>
</g>
</svg>
